<svg xmlns="http://www.w3.org/2000/svg" width="310" height="64" fill="none"><g clip-path="url(#a)"><g clip-path="url(#b)"><mask id="c" width="64" height="64" x="0" y="0" maskUnits="userSpaceOnUse" style="mask-type:alpha"><path fill="#D9D9D9" d="M0 0h64v64H0z"/></mask><g filter="url(#d)" mask="url(#c)"><path fill="#FFD366" d="M57.35 6.474c.905 11.269-7.943 22.373-19.764 24.802-11.82 2.43-22.136-4.735-23.04-16.004C13.64 4.004 22.49-7.101 34.31-9.53c11.82-2.43 22.136 4.736 23.04 16.004Z"/><path fill="#FF3278" d="M17.666 17.882C15.06 37.343 5.972 50.73-2.636 47.78c-8.608-2.949-13.475-21.116-10.87-40.578 2.603-19.462 11.693-32.848 20.3-29.9 8.609 2.95 13.476 21.117 10.872 40.579Z"/><path fill="#D014FF" d="M20.643 43.34c3.302 8.785.427 21.247-6.42 27.834-6.848 6.587-15.075 4.804-18.377-3.982-3.301-8.786-.426-21.248 6.421-27.835 6.848-6.587 15.075-4.804 18.376 3.982Z"/><path fill="#5D85FF" d="M25.975 68.896c-5.523 7.614-11.954 10.157-14.365 5.68-2.411-4.476.112-14.278 5.634-21.892 5.523-7.614 11.955-10.157 14.366-5.68 2.41 4.477-.112 14.278-5.635 21.892Z"/><path fill="#1FFFF4" d="M50.104 42.998c1.708 10.041-3.413 21.013-11.438 24.508C30.641 71 22.751 65.693 21.043 55.652c-1.707-10.04 3.413-21.013 11.438-24.508 8.025-3.494 15.915 1.813 17.623 11.854Z"/><path fill="#644DFF" d="M77 43.5C77 58.136 69.389 70 60 70S43 58.136 43 43.5 50.611 17 60 17s17 11.864 17 26.5Z"/></g></g><g filter="url(#e)" shape-rendering="crispEdges"><path fill="#fff" d="M27.114 31.713a10.388 10.388 0 0 1-1.41 4.833c-2.766 4.82-5.489 9.667-8.227 14.504-.287.509-.596.965-1.269.95-.631-.015-1.098-.411-1.18-1.045-.022-.176-.014-.357-.014-.535-.001-6.96-.035-13.922.007-20.882.041-6.753 2.947-11.9 8.671-15.338 2.507-1.506 5.266-2.185 8.192-2.2 4.2-.02 7.91 1.336 11.102 4.083 3.286 2.83 5.26 6.431 5.839 10.784.663 4.991-.55 9.479-3.717 13.35-2.84 3.47-6.502 5.523-10.925 6.147-2.883.407-5.661.007-8.363-1.043-.648-.252-.647-.274-.297-.887 1.233-2.16 2.445-4.335 3.7-6.483 2.296-3.93 6.966-5.37 11.033-3.426.24.114.442.247.638-.091.218-.375-.088-.45-.28-.586-2.703-1.905-4.192-4.512-4.427-7.854-.121-1.72.195-3.351.908-4.91.027-.058.063-.114.082-.175.066-.224.334-.452-.015-.671-.353-.222-.482.051-.632.283-.577.889-1.265 1.686-2.104 2.315-3.324 2.492-6.88 2.884-10.653 1.141-.179-.083-.369-.318-.588-.039-.23.293-.128.47.152.66 1.345.917 2.367 2.12 3.026 3.627.479 1.094.69 2.253.751 3.488Z"/><path stroke="#000" stroke-opacity=".12" stroke-width="2" d="M31.879 11c4.44-.021 8.384 1.42 11.759 4.325 3.47 2.988 5.568 6.812 6.178 11.41.698 5.255-.586 10.023-3.934 14.116-2.999 3.665-6.888 5.844-11.559 6.504-3.07.433-6.022.003-8.866-1.102a4.224 4.224 0 0 1-.488-.215c-.143-.078-.481-.283-.622-.715-.137-.419.004-.78.063-.918.067-.158.167-.331.244-.467 1.227-2.148 2.448-4.338 3.705-6.49 2.044-3.5 5.799-5.234 9.543-4.68-1.612-1.823-2.526-4.063-2.712-6.704-.065-.911-.017-1.8.137-2.668a8.385 8.385 0 0 1-.3.24c-1.782 1.335-3.669 2.138-5.651 2.352a10.38 10.38 0 0 1-3.293-.181c.474.608.874 1.28 1.196 2.016.541 1.236.77 2.523.834 3.841l.002.046-.002.046a11.39 11.39 0 0 1-1.542 5.288c-2.764 4.817-5.484 9.658-8.223 14.499-.144.254-.362.628-.696.925a2.074 2.074 0 0 1-1.467.531 2.231 2.231 0 0 1-1.431-.537 2.177 2.177 0 0 1-.717-1.38c-.033-.26-.023-.544-.023-.662-.002-6.954-.035-13.924.008-20.888.042-7.096 3.128-12.568 9.156-16.19 2.678-1.608 5.618-2.327 8.7-2.342Z"/></g><path fill="#0a0a0a" d="M75.888 47V12.632h12.096c2.208 0 4.192.464 5.952 1.392 1.76.896 3.152 2.16 4.176 3.792 1.056 1.632 1.584 3.52 1.584 5.664 0 2.144-.528 4.048-1.584 5.712-1.024 1.632-2.416 2.912-4.176 3.84-1.76.896-3.744 1.344-5.952 1.344h-8.496v-6.144h8.688c1.12 0 2.064-.224 2.832-.672.768-.448 1.344-1.024 1.728-1.728.384-.736.576-1.52.576-2.352 0-.832-.192-1.6-.576-2.304-.384-.704-.96-1.28-1.728-1.728-.768-.448-1.712-.672-2.832-.672h-5.808V47h-6.48ZM110.826 47.768c-1.728 0-3.264-.336-4.608-1.008a8.08 8.08 0 0 1-3.12-2.928c-.768-1.248-1.152-2.688-1.152-4.32 0-1.696.432-3.152 1.296-4.368.896-1.216 2.08-2.16 3.552-2.832 1.504-.672 3.168-1.008 4.992-1.008.992 0 1.888.064 2.688.192.832.096 1.568.224 2.208.384.64.16 1.168.336 1.584.528v-1.056c0-1.312-.496-2.384-1.488-3.216-.992-.864-2.352-1.296-4.08-1.296-1.152 0-2.272.272-3.36.816a7.667 7.667 0 0 0-2.64 2.064l-4.032-3.168a11.879 11.879 0 0 1 2.784-2.592 11.333 11.333 0 0 1 3.504-1.632 13.957 13.957 0 0 1 4.032-.576c3.744 0 6.592.864 8.544 2.592 1.952 1.728 2.928 4.256 2.928 7.584V47h-6.192v-2.496h-.384a9.079 9.079 0 0 1-1.68 1.632c-.672.48-1.456.864-2.352 1.152-.896.32-1.904.48-3.024.48Zm1.488-4.896c1.28 0 2.352-.272 3.216-.816.896-.576 1.568-1.312 2.016-2.208.48-.896.72-1.84.72-2.832a10.068 10.068 0 0 0-2.4-.816 11.238 11.238 0 0 0-2.736-.336c-1.856 0-3.136.352-3.84 1.056-.704.704-1.056 1.568-1.056 2.592 0 .96.336 1.76 1.008 2.4.704.64 1.728.96 3.072.96ZM141.429 58.136c-2.208 0-4.128-.352-5.76-1.056-1.6-.672-2.912-1.552-3.936-2.64s-1.744-2.224-2.16-3.408l5.904-2.4c.512 1.184 1.28 2.128 2.304 2.832 1.056.736 2.272 1.104 3.648 1.104 1.952 0 3.52-.608 4.704-1.824 1.184-1.184 1.776-2.912 1.776-5.184v-1.92h-.384c-.768 1.088-1.776 1.92-3.024 2.496-1.248.576-2.672.864-4.272.864-1.984 0-3.856-.512-5.616-1.536-1.728-1.024-3.136-2.48-4.224-4.368-1.056-1.888-1.584-4.128-1.584-6.72 0-2.624.528-4.864 1.584-6.72 1.088-1.888 2.496-3.344 4.224-4.368 1.76-1.024 3.632-1.536 5.616-1.536 1.6 0 3.024.288 4.272.864a6.976 6.976 0 0 1 3.024 2.496h.384V22.52h6.048v22.8c0 2.624-.512 4.896-1.536 6.816s-2.48 3.392-4.368 4.416c-1.856 1.056-4.064 1.584-6.624 1.584Zm.096-16.848c1.12 0 2.16-.256 3.12-.768.992-.544 1.776-1.328 2.352-2.352.608-1.056.912-2.32.912-3.792 0-1.536-.304-2.816-.912-3.84-.576-1.024-1.36-1.792-2.352-2.304-.96-.512-2-.768-3.12-.768a6.81 6.81 0 0 0-3.168.768c-.992.512-1.792 1.28-2.4 2.304-.576 1.024-.864 2.304-.864 3.84 0 1.504.288 2.784.864 3.84.608 1.024 1.408 1.792 2.4 2.304a6.81 6.81 0 0 0 3.168.768ZM171.48 47.768c-2.464 0-4.672-.56-6.624-1.68a12.357 12.357 0 0 1-4.56-4.608c-1.088-1.952-1.632-4.176-1.632-6.672 0-2.336.544-4.496 1.632-6.48 1.088-1.984 2.576-3.568 4.464-4.752 1.888-1.216 4.048-1.824 6.48-1.824 2.624 0 4.832.56 6.624 1.68a10.887 10.887 0 0 1 4.08 4.512c.928 1.856 1.392 3.92 1.392 6.192 0 .512-.016.96-.048 1.344a8.104 8.104 0 0 1-.096.768h-21.024v-4.464h15.12c-.032-.544-.192-1.104-.48-1.68a5.607 5.607 0 0 0-1.2-1.584c-.512-.48-1.136-.864-1.872-1.152-.704-.32-1.52-.48-2.448-.48-1.216 0-2.336.32-3.36.96-.992.64-1.776 1.536-2.352 2.688-.576 1.12-.864 2.464-.864 4.032 0 1.632.304 3.024.912 4.176.608 1.12 1.424 1.984 2.448 2.592 1.056.576 2.224.864 3.504.864 1.504 0 2.768-.32 3.792-.96 1.024-.672 1.824-1.504 2.4-2.496l5.088 2.496c-1.152 2.016-2.656 3.616-4.512 4.8-1.856 1.152-4.144 1.728-6.864 1.728ZM188.904 47V12.632h6.48V47h-6.48ZM202.29 47V22.52h5.904v3.072h.384c.736-1.184 1.776-2.112 3.12-2.784 1.344-.704 2.8-1.056 4.368-1.056 3.008 0 5.264.912 6.768 2.736 1.504 1.824 2.256 4.256 2.256 7.296V47h-6.288V32.552c0-1.6-.416-2.816-1.248-3.648-.8-.864-1.904-1.296-3.312-1.296-1.152 0-2.16.32-3.024.96-.832.608-1.488 1.44-1.968 2.496-.448 1.024-.672 2.176-.672 3.456V47h-6.288ZM240.242 47.768c-2.112 0-3.92-.304-5.424-.912-1.472-.608-2.672-1.408-3.6-2.4-.928-.992-1.616-2.08-2.064-3.264l5.616-2.448c.544 1.152 1.28 2.032 2.208 2.64.928.576 2.016.864 3.264.864 1.024 0 1.952-.16 2.784-.48.832-.352 1.248-.976 1.248-1.872 0-.64-.224-1.136-.672-1.488-.416-.384-.944-.672-1.584-.864a13.72 13.72 0 0 0-1.968-.528l-2.88-.624a10.879 10.879 0 0 1-3.36-1.344 8.779 8.779 0 0 1-2.592-2.496c-.64-1.024-.96-2.192-.96-3.504 0-1.472.416-2.752 1.248-3.84.864-1.088 2.016-1.936 3.456-2.544 1.472-.608 3.088-.912 4.848-.912 1.632 0 3.104.192 4.416.576 1.312.384 2.448.976 3.408 1.776.96.768 1.728 1.76 2.304 2.976l-5.376 2.352c-.512-.96-1.184-1.632-2.016-2.016a5.912 5.912 0 0 0-2.592-.576c-1.088 0-1.952.208-2.592.624-.64.416-.96.912-.96 1.488 0 .608.32 1.136.96 1.584.64.448 1.408.784 2.304 1.008l3.6.864c2.432.576 4.256 1.504 5.472 2.784 1.248 1.28 1.872 2.816 1.872 4.608 0 1.6-.464 3.008-1.392 4.224-.928 1.184-2.176 2.112-3.744 2.784-1.568.64-3.312.96-5.232.96ZM255.071 57.368V22.52h5.904v2.976h.384c.416-.64.96-1.248 1.632-1.824.704-.576 1.536-1.04 2.496-1.392.96-.352 2.032-.528 3.216-.528 2.24 0 4.24.56 6 1.68 1.792 1.088 3.2 2.608 4.224 4.56 1.056 1.952 1.584 4.208 1.584 6.768 0 2.56-.528 4.816-1.584 6.768-1.024 1.952-2.432 3.488-4.224 4.608-1.76 1.088-3.76 1.632-6 1.632-1.76 0-3.28-.368-4.56-1.104-1.248-.768-2.176-1.632-2.784-2.592h-.384l.384 3.456v9.84h-6.288Zm12.528-15.408a6.384 6.384 0 0 0 3.264-.864c1.024-.608 1.84-1.456 2.448-2.544.64-1.088.96-2.352.96-3.792 0-1.472-.32-2.736-.96-3.792-.608-1.056-1.424-1.872-2.448-2.448a6.127 6.127 0 0 0-3.264-.912 6.29 6.29 0 0 0-3.264.912c-.992.576-1.808 1.408-2.448 2.496-.608 1.056-.912 2.304-.912 3.744 0 1.44.304 2.704.912 3.792.64 1.056 1.456 1.888 2.448 2.496a6.29 6.29 0 0 0 3.264.912ZM296.924 47.768c-2.56 0-4.833-.56-6.817-1.68a12.61 12.61 0 0 1-4.608-4.656c-1.088-1.984-1.631-4.208-1.631-6.672 0-2.464.543-4.672 1.631-6.624 1.12-1.984 2.656-3.536 4.608-4.656 1.984-1.152 4.257-1.728 6.817-1.728 2.56 0 4.815.576 6.767 1.728 1.952 1.152 3.472 2.704 4.56 4.656 1.12 1.952 1.681 4.16 1.681 6.624 0 2.464-.561 4.688-1.681 6.672-1.088 1.952-2.608 3.504-4.56 4.656-1.952 1.12-4.207 1.68-6.767 1.68Zm0-5.856c1.216 0 2.32-.272 3.312-.816 1.024-.576 1.84-1.392 2.448-2.448.64-1.088.96-2.384.96-3.888s-.32-2.784-.96-3.84c-.608-1.056-1.424-1.872-2.448-2.448-.992-.576-2.096-.864-3.312-.864a6.914 6.914 0 0 0-3.36.864c-1.024.576-1.856 1.392-2.496 2.448-.608 1.056-.912 2.336-.912 3.84s.304 2.8.912 3.888c.64 1.056 1.472 1.872 2.496 2.448a7.236 7.236 0 0 0 3.36.816Z"/></g><defs><clipPath id="a"><path fill="#fff" d="M0 0h310v64H0z"/></clipPath><clipPath id="b"><rect width="64" height="64" fill="#fff" rx="24"/></clipPath><filter id="d" width="139.209" height="147.889" x="-38.209" y="-47.103" color-interpolation-filters="sRGB" filterUnits="userSpaceOnUse"><feFlood flood-opacity="0" result="BackgroundImageFix"/><feBlend in="SourceGraphic" in2="BackgroundImageFix" result="shape"/><feGaussianBlur result="effect1_foregroundBlur_3_3" stdDeviation="12"/></filter><filter id="e" width="66" height="72" x="-1" y="3" color-interpolation-filters="sRGB" filterUnits="userSpaceOnUse"><feFlood flood-opacity="0" result="BackgroundImageFix"/><feColorMatrix in="SourceAlpha" result="hardAlpha" values="0 0 0 0 0 0 0 0 0 0 0 0 0 0 0 0 0 0 127 0"/><feOffset dy="7"/><feGaussianBlur stdDeviation="7"/><feComposite in2="hardAlpha" operator="out"/><feColorMatrix values="0 0 0 0 0 0 0 0 0 0 0 0 0 0 0 0 0 0 0.15 0"/><feBlend in2="BackgroundImageFix" result="effect1_dropShadow_3_3"/><feBlend in="SourceGraphic" in2="effect1_dropShadow_3_3" result="shape"/></filter></defs></svg>