<svg width="310" height="64" viewBox="0 0 310 64" fill="none" xmlns="http://www.w3.org/2000/svg">
<g clip-path="url(#clip0_3_3)">
<g clip-path="url(#clip1_3_3)">
<mask id="mask0_3_3" style="mask-type:alpha" maskUnits="userSpaceOnUse" x="0" y="0" width="64" height="64">
<rect width="64" height="64" fill="#D9D9D9"/>
</mask>
<g mask="url(#mask0_3_3)">
<g filter="url(#filter0_f_3_3)">
<path d="M57.3509 6.47441C58.2555 17.7429 49.4067 28.8471 37.5863 31.2765C25.766 33.7059 15.4504 26.5405 14.5457 15.272C13.641 4.00361 22.4899 -7.10068 34.3102 -9.53008C46.1305 -11.9595 56.4462 -4.79403 57.3509 6.47441Z" fill="#FFD366"/>
<path d="M17.6657 17.8816C15.0614 37.3433 5.97208 50.7296 -2.63597 47.7808C-11.244 44.832 -16.1111 26.6647 -13.5068 7.20304C-10.9026 -12.2586 -1.81323 -25.645 6.79481 -22.6962C15.4029 -19.7474 20.2699 -1.58008 17.6657 17.8816Z" fill="#FF3278"/>
<path d="M20.6433 43.3393C23.9447 52.1253 21.0701 64.5874 14.2226 71.1742C7.3751 77.761 -0.852183 75.9782 -4.15357 67.1922C-7.45496 58.4061 -4.58028 45.944 2.2672 39.3572C9.11468 32.7704 17.342 34.5532 20.6433 43.3393Z" fill="#D014FF"/>
<path d="M25.9752 68.8964C20.4525 76.5104 14.0209 79.0535 11.6099 74.5766C9.19893 70.0997 11.7215 60.2981 17.2443 52.6841C22.767 45.0701 29.1986 42.527 31.6096 47.0039C34.0205 51.4808 31.498 61.2824 25.9752 68.8964Z" fill="#5D85FF"/>
<path d="M50.104 42.9981C51.8119 53.039 46.6909 64.0114 38.666 67.5057C30.6412 70.9999 22.7512 65.6929 21.0434 55.652C19.3355 45.6111 24.4565 34.6387 32.4814 31.1444C40.5062 27.6501 48.3962 32.9572 50.104 42.9981Z" fill="#1FFFF4"/>
<path d="M77 43.5C77 58.1356 69.3888 70 60 70C50.6112 70 43 58.1356 43 43.5C43 28.8645 50.6112 17 60 17C69.3888 17 77 28.8645 77 43.5Z" fill="#644DFF"/>
</g>
</g>
</g>
<g filter="url(#filter1_d_3_3)">
<path d="M27.1143 31.7134C27.039 33.4735 26.562 35.0511 25.7043 36.5459C22.9382 41.3666 20.215 46.2127 17.4775 51.0503C17.1898 51.5588 16.881 52.0154 16.2084 51.9996C15.5769 51.9848 15.1096 51.5886 15.0286 50.9545C15.0061 50.7786 15.0139 50.5982 15.0138 50.4198C15.0127 43.4592 14.979 36.4983 15.0211 29.5379C15.062 22.7852 17.9685 17.638 23.6923 14.1996C26.1986 12.694 28.9579 12.0145 31.8835 12.0002C36.0848 11.9798 39.7947 13.3358 42.9856 16.083C46.2721 18.9125 48.2466 22.5142 48.8248 26.8674C49.4876 31.8585 48.2743 36.3458 45.1077 40.217C42.2686 43.6878 38.6059 45.7396 34.1829 46.3642C31.2998 46.7714 28.5218 46.3705 25.8196 45.3207C25.1722 45.0692 25.1728 45.0467 25.5225 44.4341C26.756 42.2731 27.9683 40.0993 29.2232 37.9512C31.5187 34.0218 36.1888 32.581 40.2562 34.5246C40.4964 34.6394 40.6979 34.7722 40.8943 34.4339C41.1121 34.0588 40.8059 33.9831 40.6147 33.8484C37.911 31.9431 36.4221 29.336 36.1866 25.9943C36.0655 24.2746 36.3817 22.6428 37.095 21.0845C37.122 21.0257 37.1584 20.97 37.1766 20.9087C37.2433 20.6845 37.5111 20.4571 37.1616 20.2376C36.809 20.0162 36.6804 20.2894 36.5299 20.5214C35.9534 21.4098 35.2653 22.2068 34.4263 22.8357C31.1022 25.3276 27.5464 25.7201 23.7733 23.977C23.594 23.8942 23.4044 23.6593 23.1853 23.9382C22.9554 24.231 23.0565 24.408 23.3367 24.5989C24.6815 25.5149 25.7039 26.7177 26.363 28.2245C26.8419 29.3193 27.0538 30.4783 27.1143 31.7134Z" fill="white" shape-rendering="crispEdges"/>
<path d="M31.8789 11C36.3196 10.9785 40.263 12.4198 43.6377 15.3252C47.1084 18.3133 49.2056 22.1369 49.8164 26.7354C50.5143 31.9901 49.2299 36.7575 45.8818 40.8506C42.8832 44.5164 38.9937 46.6948 34.3232 47.3545C31.2523 47.7882 28.3007 47.3577 25.457 46.2529C25.313 46.197 25.1241 46.1235 24.9688 46.0381C24.8261 45.9596 24.4876 45.7547 24.3467 45.3232C24.21 44.9042 24.3513 44.5439 24.4102 44.4053C24.4773 44.247 24.5772 44.0736 24.6543 43.9385C25.8808 41.7899 27.1016 39.6003 28.3594 37.4473C30.4031 33.9488 34.158 32.2142 37.9023 32.7686C36.2904 30.9447 35.3755 28.7047 35.1895 26.0645C35.1252 25.153 35.1734 24.2638 35.3271 23.3965C35.2286 23.4776 35.1293 23.5586 35.0264 23.6357C33.245 24.9712 31.3584 25.7742 29.376 25.9883C28.2865 26.1059 27.1877 26.0419 26.083 25.8066C26.5566 26.4148 26.9571 27.0868 27.2793 27.8232C27.8201 29.0595 28.0487 30.3459 28.1133 31.6641L28.1152 31.71L28.1133 31.7559C28.0309 33.682 27.5056 35.4156 26.5713 37.0439C23.8073 41.8611 21.087 46.7021 18.3477 51.543C18.2042 51.7966 17.9856 52.1708 17.6523 52.4678C17.2769 52.8023 16.7886 53.0132 16.1846 52.999C15.6632 52.9867 15.1561 52.8137 14.7539 52.4619C14.3488 52.1075 14.1059 51.6195 14.0371 51.0811C14.004 50.8221 14.0137 50.5383 14.0137 50.4199C14.0125 43.4658 13.9793 36.4965 14.0215 29.5322C14.0644 22.436 17.1501 16.9636 23.1777 13.3428C25.8563 11.7338 28.7961 11.015 31.8789 11Z" stroke="black" stroke-opacity="0.12" stroke-width="2" shape-rendering="crispEdges"/>
</g>
<path d="M75.888 47V12.632H87.984C90.192 12.632 92.176 13.096 93.936 14.024C95.696 14.92 97.088 16.184 98.112 17.816C99.168 19.448 99.696 21.336 99.696 23.48C99.696 25.624 99.168 27.528 98.112 29.192C97.088 30.824 95.696 32.104 93.936 33.032C92.176 33.928 90.192 34.376 87.984 34.376H79.488V28.232H88.176C89.296 28.232 90.24 28.008 91.008 27.56C91.776 27.112 92.352 26.536 92.736 25.832C93.12 25.096 93.312 24.312 93.312 23.48C93.312 22.648 93.12 21.88 92.736 21.176C92.352 20.472 91.776 19.896 91.008 19.448C90.24 19 89.296 18.776 88.176 18.776H82.368V47H75.888Z" fill="black"/>
<path d="M110.826 47.768C109.098 47.768 107.562 47.432 106.218 46.76C104.906 46.056 103.866 45.08 103.098 43.832C102.33 42.584 101.946 41.144 101.946 39.512C101.946 37.816 102.378 36.36 103.242 35.144C104.138 33.928 105.322 32.984 106.794 32.312C108.298 31.64 109.962 31.304 111.786 31.304C112.778 31.304 113.674 31.368 114.474 31.496C115.306 31.592 116.042 31.72 116.682 31.88C117.322 32.04 117.85 32.216 118.266 32.408V31.352C118.266 30.04 117.77 28.968 116.778 28.136C115.786 27.272 114.426 26.84 112.698 26.84C111.546 26.84 110.426 27.112 109.338 27.656C108.282 28.168 107.402 28.856 106.698 29.72L102.666 26.552C103.466 25.528 104.394 24.664 105.45 23.96C106.506 23.224 107.674 22.68 108.954 22.328C110.234 21.944 111.578 21.752 112.986 21.752C116.73 21.752 119.578 22.616 121.53 24.344C123.482 26.072 124.458 28.6 124.458 31.928V47H118.266V44.504H117.882C117.434 45.08 116.874 45.624 116.202 46.136C115.53 46.616 114.746 47 113.85 47.288C112.954 47.608 111.946 47.768 110.826 47.768ZM112.314 42.872C113.594 42.872 114.666 42.6 115.53 42.056C116.426 41.48 117.098 40.744 117.546 39.848C118.026 38.952 118.266 38.008 118.266 37.016C117.562 36.664 116.762 36.392 115.866 36.2C114.97 35.976 114.058 35.864 113.13 35.864C111.274 35.864 109.994 36.216 109.29 36.92C108.586 37.624 108.234 38.488 108.234 39.512C108.234 40.472 108.57 41.272 109.242 41.912C109.946 42.552 110.97 42.872 112.314 42.872Z" fill="black"/>
<path d="M141.429 58.136C139.221 58.136 137.301 57.784 135.669 57.08C134.069 56.408 132.757 55.528 131.733 54.44C130.709 53.352 129.989 52.216 129.573 51.032L135.477 48.632C135.989 49.816 136.757 50.76 137.781 51.464C138.837 52.2 140.053 52.568 141.429 52.568C143.381 52.568 144.949 51.96 146.133 50.744C147.317 49.56 147.909 47.832 147.909 45.56V43.64H147.525C146.757 44.728 145.749 45.56 144.501 46.136C143.253 46.712 141.829 47 140.229 47C138.245 47 136.373 46.488 134.613 45.464C132.885 44.44 131.477 42.984 130.389 41.096C129.333 39.208 128.805 36.968 128.805 34.376C128.805 31.752 129.333 29.512 130.389 27.656C131.477 25.768 132.885 24.312 134.613 23.288C136.373 22.264 138.245 21.752 140.229 21.752C141.829 21.752 143.253 22.04 144.501 22.616C145.749 23.16 146.757 23.992 147.525 25.112H147.909V22.52H153.957V45.32C153.957 47.944 153.445 50.216 152.421 52.136C151.397 54.056 149.941 55.528 148.053 56.552C146.197 57.608 143.989 58.136 141.429 58.136ZM141.525 41.288C142.645 41.288 143.685 41.032 144.645 40.52C145.637 39.976 146.421 39.192 146.997 38.168C147.605 37.112 147.909 35.848 147.909 34.376C147.909 32.84 147.605 31.56 146.997 30.536C146.421 29.512 145.637 28.744 144.645 28.232C143.685 27.72 142.645 27.464 141.525 27.464C140.405 27.464 139.349 27.72 138.357 28.232C137.365 28.744 136.565 29.512 135.957 30.536C135.381 31.56 135.093 32.84 135.093 34.376C135.093 35.88 135.381 37.16 135.957 38.216C136.565 39.24 137.365 40.008 138.357 40.52C139.349 41.032 140.405 41.288 141.525 41.288Z" fill="black"/>
<path d="M171.48 47.768C169.016 47.768 166.808 47.208 164.856 46.088C162.936 44.968 161.416 43.432 160.296 41.48C159.208 39.528 158.664 37.304 158.664 34.808C158.664 32.472 159.208 30.312 160.296 28.328C161.384 26.344 162.872 24.76 164.76 23.576C166.648 22.36 168.808 21.752 171.24 21.752C173.864 21.752 176.072 22.312 177.864 23.432C179.656 24.552 181.016 26.056 181.944 27.944C182.872 29.8 183.336 31.864 183.336 34.136C183.336 34.648 183.32 35.096 183.288 35.48C183.256 35.832 183.224 36.088 183.192 36.248H162.168V31.784H177.288C177.256 31.24 177.096 30.68 176.808 30.104C176.52 29.528 176.12 29 175.608 28.52C175.096 28.04 174.472 27.656 173.736 27.368C173.032 27.048 172.216 26.888 171.288 26.888C170.072 26.888 168.952 27.208 167.928 27.848C166.936 28.488 166.152 29.384 165.576 30.536C165 31.656 164.712 33 164.712 34.568C164.712 36.2 165.016 37.592 165.624 38.744C166.232 39.864 167.048 40.728 168.072 41.336C169.128 41.912 170.296 42.2 171.576 42.2C173.08 42.2 174.344 41.88 175.368 41.24C176.392 40.568 177.192 39.736 177.768 38.744L182.856 41.24C181.704 43.256 180.2 44.856 178.344 46.04C176.488 47.192 174.2 47.768 171.48 47.768Z" fill="black"/>
<path d="M188.904 47V12.632H195.384V47H188.904Z" fill="black"/>
<path d="M202.29 47V22.52H208.194V25.592H208.578C209.314 24.408 210.354 23.48 211.698 22.808C213.042 22.104 214.498 21.752 216.066 21.752C219.074 21.752 221.33 22.664 222.834 24.488C224.338 26.312 225.09 28.744 225.09 31.784V47H218.802V32.552C218.802 30.952 218.386 29.736 217.554 28.904C216.754 28.04 215.65 27.608 214.242 27.608C213.09 27.608 212.082 27.928 211.218 28.568C210.386 29.176 209.73 30.008 209.25 31.064C208.802 32.088 208.578 33.24 208.578 34.52V47H202.29Z" fill="black"/>
<path d="M240.242 47.768C238.13 47.768 236.322 47.464 234.818 46.856C233.346 46.248 232.146 45.448 231.218 44.456C230.29 43.464 229.602 42.376 229.154 41.192L234.77 38.744C235.314 39.896 236.05 40.776 236.978 41.384C237.906 41.96 238.994 42.248 240.242 42.248C241.266 42.248 242.194 42.088 243.026 41.768C243.858 41.416 244.274 40.792 244.274 39.896C244.274 39.256 244.05 38.76 243.602 38.408C243.186 38.024 242.658 37.736 242.018 37.544C241.378 37.32 240.722 37.144 240.05 37.016L237.17 36.392C235.986 36.136 234.866 35.688 233.81 35.048C232.754 34.376 231.89 33.544 231.218 32.552C230.578 31.528 230.258 30.36 230.258 29.048C230.258 27.576 230.674 26.296 231.506 25.208C232.37 24.12 233.522 23.272 234.962 22.664C236.434 22.056 238.05 21.752 239.81 21.752C241.442 21.752 242.914 21.944 244.226 22.328C245.538 22.712 246.674 23.304 247.634 24.104C248.594 24.872 249.362 25.864 249.938 27.08L244.562 29.432C244.05 28.472 243.378 27.8 242.546 27.416C241.746 27.032 240.882 26.84 239.954 26.84C238.866 26.84 238.002 27.048 237.362 27.464C236.722 27.88 236.402 28.376 236.402 28.952C236.402 29.56 236.722 30.088 237.362 30.536C238.002 30.984 238.77 31.32 239.666 31.544L243.266 32.408C245.698 32.984 247.522 33.912 248.738 35.192C249.986 36.472 250.61 38.008 250.61 39.8C250.61 41.4 250.146 42.808 249.218 44.024C248.29 45.208 247.042 46.136 245.474 46.808C243.906 47.448 242.162 47.768 240.242 47.768Z" fill="black"/>
<path d="M255.071 57.368V22.52H260.975V25.496H261.359C261.775 24.856 262.319 24.248 262.991 23.672C263.695 23.096 264.527 22.632 265.487 22.28C266.447 21.928 267.519 21.752 268.703 21.752C270.943 21.752 272.943 22.312 274.703 23.432C276.495 24.52 277.903 26.04 278.927 27.992C279.983 29.944 280.511 32.2 280.511 34.76C280.511 37.32 279.983 39.576 278.927 41.528C277.903 43.48 276.495 45.016 274.703 46.136C272.943 47.224 270.943 47.768 268.703 47.768C266.943 47.768 265.423 47.4 264.143 46.664C262.895 45.896 261.967 45.032 261.359 44.072H260.975L261.359 47.528V57.368H255.071ZM267.599 41.96C268.783 41.96 269.871 41.672 270.863 41.096C271.887 40.488 272.703 39.64 273.311 38.552C273.951 37.464 274.271 36.2 274.271 34.76C274.271 33.288 273.951 32.024 273.311 30.968C272.703 29.912 271.887 29.096 270.863 28.52C269.871 27.912 268.783 27.608 267.599 27.608C266.447 27.608 265.359 27.912 264.335 28.52C263.343 29.096 262.527 29.928 261.887 31.016C261.279 32.072 260.975 33.32 260.975 34.76C260.975 36.2 261.279 37.464 261.887 38.552C262.527 39.608 263.343 40.44 264.335 41.048C265.359 41.656 266.447 41.96 267.599 41.96Z" fill="black"/>
<path d="M296.924 47.768C294.364 47.768 292.091 47.208 290.107 46.088C288.155 44.936 286.619 43.384 285.499 41.432C284.411 39.448 283.868 37.224 283.868 34.76C283.868 32.296 284.411 30.088 285.499 28.136C286.619 26.152 288.155 24.6 290.107 23.48C292.091 22.328 294.364 21.752 296.924 21.752C299.484 21.752 301.739 22.328 303.691 23.48C305.643 24.632 307.163 26.184 308.251 28.136C309.371 30.088 309.932 32.296 309.932 34.76C309.932 37.224 309.371 39.448 308.251 41.432C307.163 43.384 305.643 44.936 303.691 46.088C301.739 47.208 299.484 47.768 296.924 47.768ZM296.924 41.912C298.14 41.912 299.244 41.64 300.236 41.096C301.26 40.52 302.076 39.704 302.684 38.648C303.324 37.56 303.644 36.264 303.644 34.76C303.644 33.256 303.324 31.976 302.684 30.92C302.076 29.864 301.26 29.048 300.236 28.472C299.244 27.896 298.14 27.608 296.924 27.608C295.74 27.608 294.62 27.896 293.564 28.472C292.54 29.048 291.708 29.864 291.068 30.92C290.46 31.976 290.156 33.256 290.156 34.76C290.156 36.264 290.46 37.56 291.068 38.648C291.708 39.704 292.54 40.52 293.564 41.096C294.62 41.64 295.74 41.912 296.924 41.912Z" fill="black"/>
</g>
<defs>
<filter id="filter0_f_3_3" x="-38.2088" y="-47.1033" width="139.209" height="147.889" filterUnits="userSpaceOnUse" color-interpolation-filters="sRGB">
<feFlood flood-opacity="0" result="BackgroundImageFix"/>
<feBlend mode="normal" in="SourceGraphic" in2="BackgroundImageFix" result="shape"/>
<feGaussianBlur stdDeviation="12" result="effect1_foregroundBlur_3_3"/>
</filter>
<filter id="filter1_d_3_3" x="-1" y="3" width="65.9999" height="72" filterUnits="userSpaceOnUse" color-interpolation-filters="sRGB">
<feFlood flood-opacity="0" result="BackgroundImageFix"/>
<feColorMatrix in="SourceAlpha" type="matrix" values="0 0 0 0 0 0 0 0 0 0 0 0 0 0 0 0 0 0 127 0" result="hardAlpha"/>
<feOffset dy="7"/>
<feGaussianBlur stdDeviation="7"/>
<feComposite in2="hardAlpha" operator="out"/>
<feColorMatrix type="matrix" values="0 0 0 0 0 0 0 0 0 0 0 0 0 0 0 0 0 0 0.15 0"/>
<feBlend mode="normal" in2="BackgroundImageFix" result="effect1_dropShadow_3_3"/>
<feBlend mode="normal" in="SourceGraphic" in2="effect1_dropShadow_3_3" result="shape"/>
</filter>
<clipPath id="clip0_3_3">
<rect width="310" height="64" fill="white"/>
</clipPath>
<clipPath id="clip1_3_3">
<rect width="64" height="64" rx="24" fill="white"/>
</clipPath>
</defs>
</svg>
